name analog
datacolumns 19
datarows 60
range 0.5505 0.58
endheader
time	ground_force_vx	ground_force_vy	ground_force_vz	ground_force_px	ground_force_py	ground_force_pz	l_ground_force_vx	l_ground_force_vy	l_ground_force_vz	l_ground_force_px	l_ground_force_py	l_ground_force_pz	ground_torque_x	ground_torque_y	ground_torque_z	l_ground_torque_x	l_ground_torque_y	l_ground_torque_z
0.5505	-0.0	-0.0	-0.0	-11.15131378173828	6.688063621520996	-727.1454467773438	-0.0	-0.0	-0.0	-34.706695556640625	16.358430862426758	76.41996002197266	-0.0	-0.0	-0.0	-0.0	-0.0	-0.0
0.551	-0.0	-0.0	-0.0	-11.874798774719238	6.9586992263793945	-720.461181640625	-0.0	-0.0	-0.0	-34.81203079223633	16.01459503173828	74.10066223144531	-0.0	-0.0	-0.0	-0.0	-0.0	-0.0
0.5515	-0.0	-0.0	-0.0	-12.581911087036133	7.862833023071289	-716.9425048828125	-0.0	-0.0	-0.0	-34.45091247558594	16.194534301757812	75.46700286865234	-0.0	-0.0	-0.0	-0.0	-0.0	-0.0
0.552	-0.0	-0.0	-0.0	-13.537656784057615	8.887531280517578	-714.457763671875	-0.0	-0.0	-0.0	-34.96278762817383	16.44887924194336	74.12376403808594	-0.0	-0.0	-0.0	-0.0	-0.0	-0.0
0.5525	-0.0	-0.0	-0.0	-13.63334846496582	8.922547340393066	-711.41748046875	-0.0	-0.0	-0.0	-34.71295928955078	16.017688751220703	75.43058013916016	-0.0	-0.0	-0.0	-0.0	-0.0	-0.0
0.553	-0.0	-0.0	-0.0	-13.716479301452637	9.192956924438477	-707.7849731445312	-0.0	-0.0	-0.0	-34.79023361206055	16.281448364257812	76.53140258789062	-0.0	-0.0	-0.0	-0.0	-0.0	-0.0
0.5535	-0.0	-0.0	-0.0	-12.843216896057127	9.527671813964844	-705.3125610351562	-0.0	-0.0	-0.0	-34.71588516235352	16.032697677612305	74.7763442993164	-0.0	-0.0	-0.0	-0.0	-0.0	-0.0
0.554	-0.0	-0.0	-0.0	-12.403342247009276	9.881158828735352	-702.7549438476562	-0.0	-0.0	-0.0	-34.972293853759766	16.20654296875	74.07432556152344	-0.0	-0.0	-0.0	-0.0	-0.0	-0.0
0.5545	-0.0	-0.0	-0.0	-12.311050415039062	9.53695297241211	-699.61328125	-0.0	-0.0	-0.0	-34.62042999267578	16.377437591552734	75.12688446044922	-0.0	-0.0	-0.0	-0.0	-0.0	-0.0
0.555	-0.0	-0.0	-0.0	-11.85898494720459	9.881460189819336	-695.788330078125	-0.0	-0.0	-0.0	-34.63497543334961	16.197460174560547	75.11517333984375	-0.0	-0.0	-0.0	-0.0	-0.0	-0.0
0.5555	-0.0	-0.0	-0.0	-11.320775032043455	9.358692169189451	-695.4112548828125	-0.0	-0.0	-0.0	-34.79067611694336	15.936250686645508	76.13394165039062	-0.0	-0.0	-0.0	-0.0	-0.0	-0.0
0.556	-0.0	-0.0	-0.0	-11.312041282653809	9.516328811645508	-692.302734375	-0.0	-0.0	-0.0	-34.79649353027344	16.365867614746094	77.18709564208984	-0.0	-0.0	-0.0	-0.0	-0.0	-0.0
0.5565	-0.0	-0.0	-0.0	-10.44054126739502	9.602813720703123	-691.5609130859375	-0.0	-0.0	-0.0	-34.8803596496582	16.02025604248047	75.81670379638672	-0.0	-0.0	-0.0	-0.0	-0.0	-0.0
0.557	-0.0	-0.0	-0.0	-10.780007362365724	8.910149574279785	-691.8451538085938	-0.0	-0.0	-0.0	-34.89719009399414	16.281692504882812	76.10177612304688	-0.0	-0.0	-0.0	-0.0	-0.0	-0.0
0.5575	-0.0	-0.0	-0.0	-10.596063613891602	8.731926918029785	-688.3928833007812	-0.0	-0.0	-0.0	-34.71815872192383	16.194534301757812	75.81648254394531	-0.0	-0.0	-0.0	-0.0	-0.0	-0.0
0.558	-0.0	-0.0	-0.0	-9.718310356140137	8.481463432312012	-690.7418823242188	-0.0	-0.0	-0.0	-34.796627044677734	15.924625396728516	75.16779327392578	-0.0	-0.0	-0.0	-0.0	-0.0	-0.0
0.5585	-0.0	-0.0	-0.0	-9.272332191467283	7.851809501647949	-689.4292602539062	-0.0	-0.0	-0.0	-35.32268142700195	16.287202835083008	76.83747100830078	-0.0	-0.0	-0.0	-0.0	-0.0	-0.0
0.559	-0.0	-0.0	-0.0	-8.572494506835938	8.261531829833984	-690.135498046875	-0.0	-0.0	-0.0	-35.067718505859375	16.279144287109375	74.78416442871094	-0.0	-0.0	-0.0	-0.0	-0.0	-0.0
0.5595	-0.0	-0.0	-0.0	-8.207366943359375	7.665214538574219	-692.2434692382812	-0.0	-0.0	-0.0	-34.80197525024414	16.284503936767578	76.4869613647461	-0.0	-0.0	-0.0	-0.0	-0.0	-0.0
0.56	-0.0	-0.0	-0.0	-8.115469932556152	7.478900909423828	-693.0029296875	-0.0	-0.0	-0.0	-34.796756744384766	16.284503936767578	75.42424011230469	-0.0	-0.0	-0.0	-0.0	-0.0	-0.0
0.5605	-0.0	-0.0	-0.0	-8.196702003479004	7.05462121963501	-694.3834838867188	-0.0	-0.0	-0.0	-35.06001281738281	16.451526641845703	76.08607482910156	-0.0	-0.0	-0.0	-0.0	-0.0	-0.0
0.561	-0.0	-0.0	-0.0	-8.036831855773926	7.3846917152404785	-697.1251831054688	-0.0	-0.0	-0.0	-35.144527435302734	16.01205062866211	75.15340423583984	-0.0	-0.0	-0.0	-0.0	-0.0	-0.0
0.5615	-0.0	-0.0	-0.0	-7.85052490234375	6.786853790283203	-699.65966796875	-0.0	-0.0	-0.0	-34.968292236328125	16.46193504333496	76.14683532714844	-0.0	-0.0	-0.0	-0.0	-0.0	-0.0
0.562	-0.0	-0.0	-0.0	-7.939735412597656	6.860467433929443	-702.5360107421875	-0.0	-0.0	-0.0	-34.97578430175781	16.369489669799805	75.12319946289062	-0.0	-0.0	-0.0	-0.0	-0.0	-0.0
0.5625	-0.0	-0.0	-0.0	-8.125770568847656	7.036230564117432	-706.4000244140625	-0.0	-0.0	-0.0	-34.801788330078125	15.84937858581543	75.77694702148438	-0.0	-0.0	-0.0	-0.0	-0.0	-0.0
0.5630000000000001	-0.0	-0.0	-0.0	-8.918550491333008	6.952171325683594	-708.9014282226562	-0.0	-0.0	-0.0	-35.06291580200195	16.199365615844727	76.46044921875	-0.0	-0.0	-0.0	-0.0	-0.0	-0.0
0.5635	-0.0	-0.0	-0.0	-9.005290031433105	6.771426677703857	-712.040283203125	-0.0	-0.0	-0.0	-34.89835357666016	16.199337005615234	74.7809066772461	-0.0	-0.0	-0.0	-0.0	-0.0	-0.0
0.5640000000000001	-0.0	-0.0	-0.0	-8.561760902404785	7.12064790725708	-716.572998046875	-0.0	-0.0	-0.0	-34.62512969970703	16.016958236694336	76.54444885253906	-0.0	-0.0	-0.0	-0.0	-0.0	-0.0
0.5645	-0.0	-0.0	-0.0	-8.819787979125977	7.2099289894104	-720.5443115234375	-0.0	-0.0	-0.0	-34.9759521484375	16.459793090820312	76.45314025878906	-0.0	-0.0	-0.0	-0.0	-0.0	-0.0
0.5650000000000001	-0.0	-0.0	-0.0	-8.581028938293457	6.5932488441467285	-726.4815673828125	-0.0	-0.0	-0.0	-34.70758056640625	16.365203857421875	74.4289779663086	-0.0	-0.0	-0.0	-0.0	-0.0	-0.0
0.5655	-0.0	-0.0	-0.0	-8.747360229492188	6.337710857391357	-728.3319702148438	-0.0	-0.0	-0.0	-34.79254531860352	16.459884643554688	76.81405639648438	-0.0	-0.0	-0.0	-0.0	-0.0	-0.0
0.5660000000000001	-0.0	-0.0	-0.0	-8.90941333770752	6.065518379211426	-733.8895263671875	-0.0	-0.0	-0.0	-34.725486755371094	16.199018478393555	75.11250305175781	-0.0	-0.0	-0.0	-0.0	-0.0	-0.0
0.5665	-0.0	-0.0	-0.0	-8.651128768920898	6.415100574493408	-737.0230712890625	-0.0	-0.0	-0.0	-34.80373001098633	16.190126419067383	73.76873779296875	-0.0	-0.0	-0.0	-0.0	-0.0	-0.0
0.5670000000000001	-0.0	-0.0	-0.0	-8.477272033691406	5.535172462463379	-739.2415771484375	-0.0	-0.0	-0.0	-34.89532852172852	16.01021957397461	75.11228942871094	-0.0	-0.0	-0.0	-0.0	-0.0	-0.0
0.5675	-0.0	-0.0	-0.0	-7.32867956161499	5.617449760437012	-743.0994262695312	-0.0	-0.0	-0.0	-35.2359504699707	16.023193359375	74.72765350341797	-0.0	-0.0	-0.0	-0.0	-0.0	-0.0
0.5680000000000001	-0.0	-0.0	-0.0	-7.843929290771484	5.697755813598633	-747.0452270507812	-0.0	-0.0	-0.0	-34.362548828125	16.284503936767578	76.14837646484375	-0.0	-0.0	-0.0	-0.0	-0.0	-0.0
0.5685	-0.0	-0.0	-0.0	-7.389196395874023	5.339102745056152	-749.5169677734375	-0.0	-0.0	-0.0	-34.53929901123047	15.941386222839355	75.79749298095703	-0.0	-0.0	-0.0	-0.0	-0.0	-0.0
0.5690000000000001	-0.0	-0.0	-0.0	-7.130406856536865	5.078289985656738	-755.1242065429688	-0.0	-0.0	-0.0	-35.321781158447266	16.546184539794922	75.14388275146484	-0.0	-0.0	-0.0	-0.0	-0.0	-0.0
0.5695	-0.0	-0.0	-0.0	-6.964740753173828	4.734436511993408	-761.0443725585938	-0.0	-0.0	-0.0	-34.89482498168945	16.28248405456543	74.41761016845703	-0.0	-0.0	-0.0	-0.0	-0.0	-0.0
0.5700000000000001	-0.0	-0.0	-0.0	-7.829592704772949	4.806767463684082	-765.710693359375	-0.0	-0.0	-0.0	-34.805328369140625	16.54438591003418	74.4175033569336	-0.0	-0.0	-0.0	-0.0	-0.0	-0.0
0.5705	-0.0	-0.0	-0.0	-7.317317485809326	4.545650482177734	-772.7495727539062	-0.0	-0.0	-0.0	-34.799346923828125	16.2904052734375	76.12592315673828	-0.0	-0.0	-0.0	-0.0	-0.0	-0.0
0.5710000000000001	-0.0	-0.0	-0.0	-7.240176200866699	4.029012680053711	-780.8648681640625	-0.0	-0.0	-0.0	-34.98210144042969	16.366756439208984	75.76050567626953	-0.0	-0.0	-0.0	-0.0	-0.0	-0.0
0.5715	-0.0	-0.0	-0.0	-7.224059104919434	4.008877277374268	-784.5072631835938	-0.0	-0.0	-0.0	-34.534751892089844	16.19643783569336	74.42413330078125	-0.0	-0.0	-0.0	-0.0	-0.0	-0.0
0.5720000000000001	-0.0	-0.0	-0.0	-6.968193531036377	3.569122076034546	-792.9972534179688	-0.0	-0.0	-0.0	-35.06400680541992	16.374473571777344	75.4547119140625	-0.0	-0.0	-0.0	-0.0	-0.0	-0.0
0.5725	-0.0	-0.0	-0.0	-6.328195095062256	3.6409389972686768	-802.8007202148438	-0.0	-0.0	-0.0	-34.28258514404297	16.37264633178711	76.4861831665039	-0.0	-0.0	-0.0	-0.0	-0.0	-0.0
0.5730000000000001	-0.0	-0.0	-0.0	-5.7929558753967285	2.8426358699798584	-809.856689453125	-0.0	-0.0	-0.0	-34.79572677612305	15.933723449707031	74.08639526367188	-0.0	-0.0	-0.0	-0.0	-0.0	-0.0
0.5735	-0.0	-0.0	-0.0	-5.2615485191345215	2.1372599601745605	-818.6859741210938	-0.0	-0.0	-0.0	-35.058860778808594	16.19631576538086	77.86967468261719	-0.0	-0.0	-0.0	-0.0	-0.0	-0.0
0.5740000000000001	-0.0	-0.0	-0.0	-4.724489688873291	2.026181697845459	-822.952880859375	-0.0	-0.0	-0.0	-34.45018005371094	16.275785446166992	75.46150970458984	-0.0	-0.0	-0.0	-0.0	-0.0	-0.0
0.5745	-0.0	-0.0	-0.0	-4.531769752502441	1.8573781251907349	-830.0155639648438	-0.0	-0.0	-0.0	-34.62042999267578	15.846598625183104	76.82524108886719	-0.0	-0.0	-0.0	-0.0	-0.0	-0.0
0.5750000000000001	-0.0	-0.0	-0.0	-3.388212919235229	1.057071328163147	-834.6137084960938	-0.0	-0.0	-0.0	-34.62548828125	15.841439247131348	75.83873748779297	-0.0	-0.0	-0.0	-0.0	-0.0	-0.0
0.5755	-0.0	-0.0	-0.0	-3.302537679672241	0.4439048767089844	-842.3894653320312	-0.0	-0.0	-0.0	-34.62042999267578	16.367841720581055	74.77867889404297	-0.0	-0.0	-0.0	-0.0	-0.0	-0.0
0.5760000000000001	-0.0	-0.0	-0.0	-3.197890043258667	0.174841821193695	-849.0377807617188	-0.0	-0.0	-0.0	-35.23697280883789	16.544692993164062	74.77808380126953	-0.0	-0.0	-0.0	-0.0	-0.0	-0.0
0.5765	-0.0	-0.0	-0.0	-2.1376664638519287	-0.0857475847005844	-855.0955200195312	-0.0	-0.0	-0.0	-34.88880157470703	16.453231811523438	75.79316711425781	-0.0	-0.0	-0.0	-0.0	-0.0	-0.0
0.577	-0.0	-0.0	-0.0	-1.5033366680145264	0.2657374441623688	-863.5314331054688	-0.0	-0.0	-0.0	-35.14940643310547	16.104564666748047	76.507568359375	-0.0	-0.0	-0.0	-0.0	-0.0	-0.0
0.5775	-0.0	-0.0	-0.0	-0.7217718958854675	-0.2576945424079895	-870.6077270507812	-0.0	-0.0	-0.0	-34.8023796081543	16.01459503173828	76.4837646484375	-0.0	-0.0	-0.0	-0.0	-0.0	-0.0
0.578	-0.0	-0.0	-0.0	-0.4412435591220855	0.2577818632125854	-879.809326171875	-0.0	-0.0	-0.0	-34.80235290527344	15.749218940734863	75.10964965820312	-0.0	-0.0	-0.0	-0.0	-0.0	-0.0
0.5785	-0.0	-0.0	-0.0	-0.4476178586483001	0.1751329749822616	-887.1817626953125	-0.0	-0.0	-0.0	-34.536827087402344	16.368581771850586	78.22211456298828	-0.0	-0.0	-0.0	-0.0	-0.0	-0.0
0.579	-0.0	-0.0	-0.0	-0.2584657073020935	0.0967617258429527	-893.2222290039062	-0.0	-0.0	-0.0	-34.972557067871094	16.016029357910156	75.13734436035156	-0.0	-0.0	-0.0	-0.0	-0.0	-0.0
0.5795	-0.0	-0.0	-0.0	0.1799363493919372	0.880706250667572	-899.2081909179688	-0.0	-0.0	-0.0	-35.15435028076172	16.370206832885742	76.1566162109375	-0.0	-0.0	-0.0	-0.0	-0.0	-0.0
0.58	-0.0	-0.0	-0.0	0.2646762430667877	1.1454083919525146	-905.2352905273438	-0.0	-0.0	-0.0	-35.064964294433594	16.10594940185547	74.76900482177734	-0.0	-0.0	-0.0	-0.0	-0.0	-0.0
